<?xml version="1.0" standalone="no"?>
<!DOCTYPE svg PUBLIC "-//W3C//DTD SVG 20010904//EN"
 "http://www.w3.org/TR/2001/REC-SVG-20010904/DTD/svg10.dtd">
<svg version="1.0" xmlns="http://www.w3.org/2000/svg"
 width="197.000000pt" height="56.000000pt" viewBox="0 0 197.000000 56.000000"
 preserveAspectRatio="xMidYMid meet">
<g transform="translate(0.000000,56.000000) scale(0.100000,-0.100000)"
fill="#588dad" stroke="none">
<path d="M152 433 c3 -16 16 -18 123 -14 75 2 123 7 127 15 5 7 8 5 8 -6 0 -9
-9 -19 -19 -23 -41 -13 -34 -48 12 -59 24 -6 27 -4 27 20 0 21 -4 25 -20 21
-11 -3 -20 -2 -20 3 0 12 28 20 45 14 23 -9 19 23 -4 36 -11 5 -79 10 -151 10
-120 0 -131 -2 -128 -17z"/>
<path d="M1080 290 c0 -80 4 -130 10 -130 6 0 10 13 10 29 0 44 16 46 42 7 13
-20 29 -36 36 -36 8 0 1 16 -18 40 l-31 40 28 25 c15 13 23 25 17 25 -6 0 -21
-11 -34 -25 -39 -42 -45 -33 -42 65 2 59 0 90 -7 90 -7 0 -11 -44 -11 -130z"/>
<path d="M165 389 c-3 -4 -2 -14 1 -23 7 -19 40 -21 50 -4 5 7 2 9 -9 5 -11
-4 -14 -2 -10 9 3 8 12 13 19 10 8 -3 14 -1 14 4 0 10 -59 10 -65 -1z"/>
<path d="M540 280 l0 -120 45 0 c35 0 52 6 70 25 31 30 31 49 2 79 -23 23 -23
23 -4 48 16 22 17 29 7 49 -18 33 -29 39 -77 39 l-43 0 0 -120z m98 82 c17
-22 15 -36 -7 -56 -19 -17 -79 -20 -73 -3 1 4 2 25 2 48 0 41 0 41 33 34 17
-4 38 -14 45 -23z m9 -109 c26 -35 6 -69 -48 -78 l-37 -7 -3 52 c-2 28 -2 54
1 57 10 10 75 -7 87 -24z"/>
<path d="M1240 283 c0 -76 4 -123 10 -123 6 0 10 39 10 98 l1 97 31 -35 c17
-19 58 -64 90 -100 l58 -65 0 123 c0 80 -4 122 -11 122 -7 0 -9 -33 -5 -102
l6 -103 -58 65 c-31 36 -74 83 -94 105 l-37 40 -1 -122z"/>
<path d="M325 360 c3 -5 13 -10 21 -10 8 0 12 5 9 10 -3 6 -13 10 -21 10 -8 0
-12 -4 -9 -10z"/>
<path d="M133 337 c-9 -14 0 -16 118 -23 103 -6 116 -5 116 10 0 9 -7 16 -14
16 -8 0 -12 -4 -9 -8 3 -5 -1 -9 -9 -9 -8 0 -12 4 -9 8 2 4 -39 9 -92 11 -53
2 -98 -1 -101 -5z"/>
<path d="M1810 321 c0 -20 -6 -31 -17 -34 -17 -4 -17 -5 0 -6 14 -1 17 -11 17
-61 0 -33 4 -60 10 -60 6 0 10 27 10 61 0 56 2 61 20 56 11 -3 20 -1 20 4 0 5
-9 9 -20 9 -16 0 -20 7 -20 30 0 17 -4 30 -10 30 -5 0 -10 -13 -10 -29z"/>
<path d="M380 318 c0 -15 9 -18 50 -18 36 0 50 4 50 14 0 10 -15 15 -50 18
-42 2 -50 0 -50 -14z"/>
<path d="M271 293 c11 -3 14 -12 11 -33 -2 -17 0 -30 4 -30 5 0 10 16 11 35 1
30 -1 35 -20 34 -14 -1 -16 -3 -6 -6z"/>
<path d="M740 280 c-46 -46 -14 -120 51 -120 30 0 69 40 69 70 0 10 -9 29 -21
44 -25 32 -70 35 -99 6z m95 -34 c11 -32 0 -55 -34 -67 -17 -7 -28 -3 -47 16
-13 13 -24 29 -24 35 0 6 11 22 24 35 30 30 66 22 81 -19z"/>
<path d="M915 275 c-30 -30 -31 -54 -4 -89 40 -50 119 -21 119 44 0 64 -70 91
-115 45z m90 -19 c29 -44 -18 -96 -66 -73 -27 14 -38 60 -18 83 19 23 66 17
84 -10z"/>
<path d="M1520 280 c-56 -56 8 -143 84 -114 22 9 10 23 -14 17 -24 -6 -70 4
-70 16 0 4 25 16 55 26 30 11 55 23 55 27 0 17 -41 48 -65 48 -14 0 -34 -9
-45 -20z m87 -16 c2 -6 -14 -16 -34 -23 -21 -8 -44 -16 -50 -18 -21 -8 -15 16
11 42 19 19 30 23 47 16 13 -4 24 -12 26 -17z"/>
<path d="M1677 293 c-4 -3 -7 -17 -7 -30 0 -18 8 -27 30 -34 19 -7 30 -18 30
-29 0 -23 -19 -30 -43 -18 -23 12 -37 1 -17 -12 22 -14 56 -12 70 5 16 19 9
47 -15 60 -43 22 -47 26 -34 41 7 9 20 12 37 7 17 -4 23 -2 18 6 -8 12 -58 15
-69 4z"/>
<path d="M80 278 c1 -7 6 -39 13 -71 11 -51 16 -60 57 -87 47 -31 57 -32 44
-3 -4 10 -13 43 -20 73 l-13 55 5 -48 5 -48 -25 16 c-21 14 -26 25 -26 57 0
37 2 40 24 36 17 -4 26 0 29 12 3 14 -4 17 -44 19 -35 1 -49 -2 -49 -11z"/>
<path d="M317 283 c-13 -13 -7 -21 13 -16 11 3 20 9 20 14 0 10 -24 12 -33 2z"/>
<path d="M390 281 c0 -6 5 -13 10 -16 21 -13 -1 -23 -45 -22 -25 1 -45 -2 -45
-6 0 -4 28 -7 63 -5 59 3 62 4 65 31 3 23 0 27 -22 27 -14 0 -26 -4 -26 -9z"/>
<path d="M271 193 c1 -23 2 -24 6 -6 3 14 13 23 31 26 24 4 24 4 -5 6 -30 1
-33 -2 -32 -26z"/>
<path d="M363 207 c-62 -9 -73 -13 -73 -30 0 -17 5 -19 31 -13 17 3 56 6 85 6
51 0 54 1 54 25 0 14 -5 24 -12 23 -7 -1 -46 -6 -85 -11z"/>
<path d="M358 146 c-83 -7 -98 -11 -98 -26 0 -15 10 -17 98 -12 53 2 100 7
103 11 4 3 4 13 0 21 -5 13 -21 14 -103 6z"/>
<path d="M216 113 c-13 -14 -5 -33 14 -33 11 0 20 6 20 14 0 15 -24 28 -34 19z"/>
</g>
</svg>
